<mxfile host="app.diagrams.net" agent="Mozilla/5.0 (Windows NT 10.0; Win64; x64) AppleWebKit/537.36 (KHTML, like Gecko) Chrome/137.0.0.0 Safari/537.36" version="27.1.6">
  <diagram name="Page-1" id="Gu5yVXXCo-fynPPDfR21">
    <mxGraphModel dx="786" dy="463" grid="1" gridSize="10" guides="1" tooltips="1" connect="1" arrows="1" fold="1" page="1" pageScale="1" pageWidth="850" pageHeight="1100" math="0" shadow="0">
      <root>
        <mxCell id="0" />
        <mxCell id="1" parent="0" />
        <mxCell id="SNT0My218QWg9RCz3uqM-6" value="" style="edgeStyle=orthogonalEdgeStyle;rounded=0;orthogonalLoop=1;jettySize=auto;html=1;" edge="1" parent="1" source="SNT0My218QWg9RCz3uqM-1" target="SNT0My218QWg9RCz3uqM-2">
          <mxGeometry relative="1" as="geometry" />
        </mxCell>
        <mxCell id="SNT0My218QWg9RCz3uqM-1" value="User submits text input" style="rounded=0;whiteSpace=wrap;html=1;" vertex="1" parent="1">
          <mxGeometry x="295" y="70" width="170" height="40" as="geometry" />
        </mxCell>
        <mxCell id="SNT0My218QWg9RCz3uqM-7" value="" style="edgeStyle=orthogonalEdgeStyle;rounded=0;orthogonalLoop=1;jettySize=auto;html=1;" edge="1" parent="1" source="SNT0My218QWg9RCz3uqM-2" target="SNT0My218QWg9RCz3uqM-3">
          <mxGeometry relative="1" as="geometry" />
        </mxCell>
        <mxCell id="SNT0My218QWg9RCz3uqM-2" value="LLM parses input*: Extracts income, credit score, debts, and employment status from the text using LLaMA-3." style="rounded=0;whiteSpace=wrap;html=1;" vertex="1" parent="1">
          <mxGeometry x="270" y="130" width="220" height="90" as="geometry" />
        </mxCell>
        <mxCell id="SNT0My218QWg9RCz3uqM-8" value="" style="edgeStyle=orthogonalEdgeStyle;rounded=0;orthogonalLoop=1;jettySize=auto;html=1;" edge="1" parent="1" source="SNT0My218QWg9RCz3uqM-3" target="SNT0My218QWg9RCz3uqM-4">
          <mxGeometry relative="1" as="geometry" />
        </mxCell>
        <mxCell id="SNT0My218QWg9RCz3uqM-3" value="RAG retrieves data*: Chroma vector database finds relevant loan criteria/regulations based on parsed input." style="rounded=0;whiteSpace=wrap;html=1;" vertex="1" parent="1">
          <mxGeometry x="260" y="240" width="240" height="100" as="geometry" />
        </mxCell>
        <mxCell id="SNT0My218QWg9RCz3uqM-4" value="LLM generates guidance*: Combines retrieved data and parsed input to suggest next steps and highlight missing info." style="rounded=0;whiteSpace=wrap;html=1;" vertex="1" parent="1">
          <mxGeometry x="215" y="370" width="330" height="80" as="geometry" />
        </mxCell>
      </root>
    </mxGraphModel>
  </diagram>
</mxfile>
